<?xml version="1.0" standalone="no"?>
<!DOCTYPE svg PUBLIC "-//W3C//DTD SVG 20010904//EN"
 "http://www.w3.org/TR/2001/REC-SVG-20010904/DTD/svg10.dtd">
<svg version="1.0" xmlns="http://www.w3.org/2000/svg"
 width="522.000000pt" height="522.000000pt" viewBox="0 0 522.000000 522.000000"
 preserveAspectRatio="xMidYMid meet">

<g transform="translate(0.000000,522.000000) scale(0.100000,-0.100000)"
fill="#000000" stroke="none">
<path d="M3813 4631 c-120 -93 -576 -446 -1013 -785 l-795 -616 -397 0 c-312
0 -398 3 -398 13 0 6 47 156 104 332 58 176 104 321 102 322 -1 2 -296 -224
-655 -502 l-652 -505 720 0 c397 0 721 -3 720 -7 0 -5 -153 -125 -339 -268
-186 -143 -339 -263 -339 -267 -1 -5 143 -8 319 -8 l320 0 356 275 355 275
590 0 c455 0 589 -3 589 -12 0 -10 -148 -474 -166 -523 -5 -13 26 -15 259 -15
l265 0 89 273 89 272 304 5 305 5 214 165 213 165 -461 3 -462 2 7 23 c4 12
116 359 250 772 134 412 244 755 244 762 0 10 -54 13 -259 13 l-259 0 -219
-169z m-152 -964 c-76 -236 -141 -430 -143 -433 -3 -2 -195 -3 -428 -2 l-424
3 565 437 c310 240 565 434 567 430 1 -4 -60 -200 -137 -435z"/>
<path d="M298 1692 l-187 -207 61 -3 c60 -3 62 -2 102 37 l42 41 186 0 187 0
32 -40 c32 -39 34 -40 96 -40 35 0 63 2 63 5 0 11 -371 410 -383 412 -7 1 -96
-91 -199 -205z m312 -54 c0 -5 -52 -8 -115 -8 -63 0 -115 3 -115 6 0 3 26 35
58 70 l57 65 57 -63 c32 -35 58 -66 58 -70z"/>
<path d="M1188 1892 l-48 -3 0 -205 0 -204 255 0 256 0 14 33 13 32 -214 3
-214 2 0 170 c0 93 -3 170 -7 172 -5 2 -29 2 -55 0z"/>
<path d="M1924 1891 c-2 -2 -4 -96 -4 -208 l0 -203 55 0 54 0 3 68 3 67 230 5
c198 4 235 7 258 23 81 53 83 163 4 221 -27 20 -45 21 -314 26 -156 3 -287 3
-289 1z m521 -96 c14 -13 25 -31 25 -40 0 -9 -11 -27 -25 -40 -24 -25 -25 -25
-220 -25 l-195 0 0 65 0 65 195 0 c195 0 196 0 220 -25z"/>
<path d="M2938 1892 l-48 -3 0 -205 0 -204 55 0 55 0 0 204 c0 113 -3 206 -7
208 -5 2 -29 2 -55 0z"/>
<path d="M3413 1892 l-53 -3 0 -205 0 -204 50 0 50 0 0 150 c0 83 3 150 6 150
4 0 129 -67 278 -149 149 -82 277 -151 284 -153 10 -2 12 41 12 200 0 111 0
205 0 210 0 4 -22 5 -50 4 l-50 -4 0 -124 c0 -68 -2 -124 -3 -124 -2 0 -100
53 -218 118 -265 147 -244 138 -306 134z"/>
<path d="M4688 1892 l-278 -2 0 -205 0 -205 279 0 c154 0 282 3 284 8 2 4 7
19 11 35 l6 27 -235 0 -235 0 0 50 0 50 228 2 227 3 0 35 0 35 -227 3 -228 2
0 45 0 45 228 2 227 3 3 29 c2 16 0 31 -5 35 -4 3 -133 5 -285 3z"/>
<path d="M1981 1126 c-16 -19 -10 -68 9 -74 12 -4 13 -2 3 9 -16 17 -17 51 -1
67 7 7 9 12 6 12 -3 0 -11 -6 -17 -14z"/>
<path d="M2044 1118 c20 -28 20 -33 0 -52 -8 -9 -11 -16 -5 -16 6 0 15 9 21
21 9 16 8 26 -5 45 -8 13 -18 24 -21 24 -3 0 2 -10 10 -22z"/>
<path d="M1410 990 c0 -133 1 -140 20 -140 18 0 20 7 20 60 l0 59 67 3 c55 2
68 6 71 21 3 15 -5 17 -67 17 l-71 0 0 45 0 45 75 0 c60 0 75 3 75 15 0 12
-17 15 -95 15 l-95 0 0 -140z"/>
<path d="M1730 1115 c0 -10 11 -15 35 -15 l35 0 0 -125 c0 -118 1 -125 20
-125 19 0 20 7 20 140 l0 140 -55 0 c-42 0 -55 -3 -55 -15z"/>
<path d="M2310 1116 c0 -11 14 -16 48 -18 l47 -3 3 -122 c2 -115 4 -123 22
-123 19 0 20 7 20 124 l0 125 48 3 c91 6 43 23 -73 26 -96 2 -115 0 -115 -12z"/>
<path d="M2680 990 l0 -140 100 0 c82 0 100 3 100 15 0 12 -16 15 -80 15 l-80
0 0 45 0 45 70 0 c63 0 70 2 70 20 0 18 -7 20 -70 20 l-70 0 0 45 0 45 80 0
c64 0 80 3 80 15 0 12 -18 15 -100 15 l-100 0 0 -140z"/>
<path d="M3096 1122 c-5 -9 -96 -263 -96 -270 0 -2 10 -2 22 0 15 2 25 13 32
36 l9 33 66 -3 c64 -3 65 -4 75 -35 6 -25 15 -33 31 -33 22 0 21 4 -28 140
-48 135 -51 140 -78 140 -15 0 -30 -4 -33 -8z m58 -96 c9 -27 16 -53 16 -58 0
-4 -21 -8 -46 -8 -33 0 -45 4 -42 13 3 6 13 36 23 65 11 28 22 49 26 45 3 -5
14 -30 23 -57z"/>
<path d="M3400 990 c0 -135 1 -140 21 -140 20 0 21 4 17 110 -1 61 0 110 3
110 3 0 21 -49 39 -110 l33 -110 33 0 33 0 38 118 38 117 3 -117 c2 -110 4
-118 22 -118 19 0 20 7 20 141 l0 140 -37 -3 -37 -3 -36 -112 c-19 -61 -38
-115 -42 -118 -3 -3 -23 48 -44 114 l-37 121 -34 0 -33 0 0 -140z"/>
<path d="M2000 1097 c0 -26 26 -33 35 -9 7 18 -2 32 -21 32 -8 0 -14 -10 -14
-23z"/>
<path d="M2150 360 l-34 -30 157 0 157 0 32 30 33 29 -155 0 -155 0 -35 -29z"/>
<path d="M2630 360 l-35 -29 160 -1 161 0 34 30 35 29 -160 0 -160 0 -35 -29z"/>
</g>
</svg>
